<?xml version="1.0" encoding="iso-8859-1"?>
<!-- Generator: Adobe Illustrator 12.0.1, SVG Export Plug-In . SVG Version: 6.00 Build 51448)  -->
<!DOCTYPE svg PUBLIC "-//W3C//DTD SVG 1.1//EN" "http://www.w3.org/Graphics/SVG/1.1/DTD/svg11.dtd" [
	<!ENTITY ns_svg "http://www.w3.org/2000/svg">
	<!ENTITY ns_xlink "http://www.w3.org/1999/xlink">
]>
<svg  version="1.1" id="Layer_1" xmlns="&ns_svg;" xmlns:xlink="&ns_xlink;" width="49.7" height="50.1" viewBox="0 0 49.7 50.1"
	 style="overflow:visible;enable-background:new 0 0 49.7 50.1;" xml:space="preserve">
<g>
	<path style="fill:#FF0000;stroke:#FFFF00;" d="M23.5,6.8L10.8,42c-0.4,1.1-0.6,1.9-0.6,2.3c0,0.6,0.2,1.1,0.6,1.5
		c0.4,0.4,0.7,0.6,1.1,0.7s1.4,0.1,3.3,0.1v2.9H0.5v-2.9c1.9,0,3.2-0.3,3.9-1c0.7-0.6,1.5-2.2,2.4-4.5L22,0.5h5.8l15.2,41
		c0.7,1.9,1.4,3.3,2.2,4s1.8,1.1,3.2,1.1h0.8v2.9H31.7v-2.9c0.5,0,1.2-0.1,2.2-0.1c1.8,0,2.7-0.7,2.7-2c0-0.6-0.3-1.8-1-3.6
		L23.5,6.8z"/>
</g>
</svg>
